# xmcd
#
# Track frame offsets: 
#        150
#        9582
#        29014
#        45096
#        49925
#        73064
#        101567
#        125926
#        157470
#        174900
#        195421
#        215617
#
# Disc length: 3117 seconds
#
# Revision: 0
# Processed by: cddbd v1.5.2PL0 Copyright (c) Steve Scherf et al.
# Submitted via: ExactAudioCopy v0.95b4
#
DISCID=ad0c2b0c
DTITLE=Porsche Smith - About Life
DYEAR=2007
DGENRE=
TTITLE0=Opening Statements
TTITLE1=Bebop
TTITLE2=Crazy
TTITLE3=In The Park: Interlude
TTITLE4=It's Up To You (feat. Lauren Petty)
TTITLE5=Daydreamin'
TTITLE6=Little Brother
TTITLE7=Neglected
TTITLE8=Cryin'
TTITLE9=Life
TTITLE10=Closing Remarks
TTITLE11=Bonus: Be Where U Are
EXTD=
EXTT0=
EXTT1=
EXTT2=
EXTT3=
EXTT4=
EXTT5=
EXTT6=
EXTT7=
EXTT8=
EXTT9=
EXTT10=
EXTT11=
PLAYORDER=
